<svg width="90" height="28" viewBox="0 0 90 28" fill="none" xmlns="http://www.w3.org/2000/svg">
<path d="M2.28 22C2.104 22 1.96 21.944 1.848 21.832C1.736 21.72 1.68 21.576 1.68 21.4V5.8C1.68 5.624 1.736 5.48 1.848 5.368C1.96 5.256 2.104 5.2 2.28 5.2H8.808C10.872 5.2 12.496 5.68 13.68 6.64C14.88 7.584 15.48 8.928 15.48 10.672C15.48 11.808 15.2 12.768 14.64 13.552C14.096 14.336 13.376 14.928 12.48 15.328L15.792 21.232C15.84 21.328 15.864 21.416 15.864 21.496C15.864 21.624 15.808 21.744 15.696 21.856C15.6 21.952 15.48 22 15.336 22H12.168C11.864 22 11.64 21.928 11.496 21.784C11.352 21.624 11.248 21.48 11.184 21.352L8.448 16.072H5.976V21.4C5.976 21.576 5.92 21.72 5.808 21.832C5.696 21.944 5.552 22 5.376 22H2.28ZM5.976 12.688H8.76C9.512 12.688 10.072 12.504 10.44 12.136C10.824 11.768 11.016 11.264 11.016 10.624C11.016 10 10.832 9.496 10.464 9.112C10.112 8.728 9.544 8.536 8.76 8.536H5.976V12.688ZM25.0674 22.24C23.5954 22.24 22.3154 22 21.2274 21.52C20.1394 21.04 19.2914 20.32 18.6834 19.36C18.0754 18.384 17.7394 17.168 17.6754 15.712C17.6594 15.024 17.6514 14.336 17.6514 13.648C17.6514 12.96 17.6594 12.264 17.6754 11.56C17.7394 10.12 18.0754 8.912 18.6834 7.936C19.3074 6.944 20.1634 6.2 21.2514 5.704C22.3394 5.208 23.6114 4.96 25.0674 4.96C26.5074 4.96 27.7714 5.208 28.8594 5.704C29.9634 6.2 30.8274 6.944 31.4514 7.936C32.0754 8.912 32.4114 10.12 32.4594 11.56C32.4914 12.264 32.5074 12.96 32.5074 13.648C32.5074 14.336 32.4914 15.024 32.4594 15.712C32.3954 17.168 32.0594 18.384 31.4514 19.36C30.8434 20.32 29.9954 21.04 28.9074 21.52C27.8194 22 26.5394 22.24 25.0674 22.24ZM25.0674 18.784C25.9154 18.784 26.6034 18.528 27.1314 18.016C27.6754 17.504 27.9634 16.688 27.9954 15.568C28.0274 14.864 28.0434 14.2 28.0434 13.576C28.0434 12.952 28.0274 12.304 27.9954 11.632C27.9634 10.88 27.8194 10.272 27.5634 9.808C27.3234 9.328 26.9874 8.976 26.5554 8.752C26.1234 8.528 25.6274 8.416 25.0674 8.416C24.5234 8.416 24.0354 8.528 23.6034 8.752C23.1714 8.976 22.8274 9.328 22.5714 9.808C22.3154 10.272 22.1714 10.88 22.1394 11.632C22.1234 12.304 22.1154 12.952 22.1154 13.576C22.1154 14.2 22.1234 14.864 22.1394 15.568C22.1874 16.688 22.4754 17.504 23.0034 18.016C23.5314 18.528 24.2194 18.784 25.0674 18.784ZM35.8894 22C35.7134 22 35.5694 21.944 35.4574 21.832C35.3454 21.72 35.2894 21.576 35.2894 21.4V5.8C35.2894 5.624 35.3454 5.48 35.4574 5.368C35.5694 5.256 35.7134 5.2 35.8894 5.2H43.2094C44.5854 5.2 45.7134 5.392 46.5934 5.776C47.4734 6.16 48.1214 6.712 48.5374 7.432C48.9694 8.136 49.1854 8.976 49.1854 9.952C49.1854 10.528 49.0734 11.04 48.8494 11.488C48.6414 11.92 48.3774 12.28 48.0574 12.568C47.7534 12.856 47.4654 13.064 47.1934 13.192C47.8014 13.48 48.3374 13.952 48.8014 14.608C49.2814 15.264 49.5214 16.032 49.5214 16.912C49.5214 17.968 49.2814 18.88 48.8014 19.648C48.3374 20.4 47.6494 20.984 46.7374 21.4C45.8414 21.8 44.7374 22 43.4254 22H35.8894ZM39.5854 18.88H42.9454C43.6334 18.88 44.1534 18.68 44.5054 18.28C44.8574 17.88 45.0334 17.424 45.0334 16.912C45.0334 16.352 44.8494 15.88 44.4814 15.496C44.1294 15.112 43.6174 14.92 42.9454 14.92H39.5854V18.88ZM39.5854 11.872H42.7294C43.3854 11.872 43.8734 11.704 44.1934 11.368C44.5294 11.032 44.6974 10.6 44.6974 10.072C44.6974 9.56 44.5294 9.144 44.1934 8.824C43.8734 8.488 43.3854 8.32 42.7294 8.32H39.5854V11.872ZM59.0518 22.24C57.5798 22.24 56.2998 22 55.2118 21.52C54.1238 21.04 53.2758 20.32 52.6678 19.36C52.0598 18.384 51.7238 17.168 51.6598 15.712C51.6438 15.024 51.6358 14.336 51.6358 13.648C51.6358 12.96 51.6438 12.264 51.6598 11.56C51.7238 10.12 52.0598 8.912 52.6678 7.936C53.2918 6.944 54.1478 6.2 55.2358 5.704C56.3238 5.208 57.5958 4.96 59.0518 4.96C60.4918 4.96 61.7558 5.208 62.8438 5.704C63.9478 6.2 64.8118 6.944 65.4358 7.936C66.0598 8.912 66.3958 10.12 66.4438 11.56C66.4758 12.264 66.4918 12.96 66.4918 13.648C66.4918 14.336 66.4758 15.024 66.4438 15.712C66.3798 17.168 66.0438 18.384 65.4358 19.36C64.8278 20.32 63.9798 21.04 62.8918 21.52C61.8038 22 60.5238 22.24 59.0518 22.24ZM59.0518 18.784C59.8998 18.784 60.5878 18.528 61.1158 18.016C61.6598 17.504 61.9478 16.688 61.9798 15.568C62.0118 14.864 62.0278 14.2 62.0278 13.576C62.0278 12.952 62.0118 12.304 61.9798 11.632C61.9478 10.88 61.8038 10.272 61.5478 9.808C61.3078 9.328 60.9718 8.976 60.5398 8.752C60.1078 8.528 59.6118 8.416 59.0518 8.416C58.5078 8.416 58.0198 8.528 57.5878 8.752C57.1558 8.976 56.8118 9.328 56.5558 9.808C56.2998 10.272 56.1558 10.88 56.1238 11.632C56.1078 12.304 56.0998 12.952 56.0998 13.576C56.0998 14.2 56.1078 14.864 56.1238 15.568C56.1718 16.688 56.4598 17.504 56.9878 18.016C57.5158 18.528 58.2038 18.784 59.0518 18.784Z" fill="white"/>
<path d="M73.4951 22C73.3511 22 73.2231 21.952 73.1111 21.856C73.0151 21.744 72.9671 21.624 72.9671 21.496C72.9671 21.448 72.9751 21.4 72.9911 21.352C73.0071 21.304 73.0311 21.256 73.0631 21.208L78.2951 13.432L73.4471 5.992C73.3991 5.896 73.3751 5.8 73.3751 5.704C73.3751 5.576 73.4231 5.464 73.5191 5.368C73.6151 5.256 73.7351 5.2 73.8791 5.2H77.3591C77.5991 5.2 77.7831 5.264 77.9111 5.392C78.0391 5.504 78.1271 5.608 78.1751 5.704L81.0551 10.072L83.9591 5.704C84.0231 5.608 84.1191 5.504 84.2471 5.392C84.3751 5.264 84.5591 5.2 84.7991 5.2H88.0871C88.2311 5.2 88.3511 5.256 88.4471 5.368C88.5591 5.464 88.6151 5.576 88.6151 5.704C88.6151 5.816 88.5831 5.912 88.5191 5.992L83.6471 13.408L88.9271 21.208C88.9591 21.256 88.9751 21.304 88.9751 21.352C88.9911 21.4 88.9991 21.448 88.9991 21.496C88.9991 21.624 88.9511 21.744 88.8551 21.856C88.7591 21.952 88.6391 22 88.4951 22H84.9191C84.6791 22 84.4871 21.944 84.3431 21.832C84.2151 21.704 84.1271 21.6 84.0791 21.52L80.8871 16.912L77.7671 21.52C77.7191 21.6 77.6311 21.704 77.5031 21.832C77.3751 21.944 77.1911 22 76.9511 22H73.4951Z" fill="#9CE3EE"/>
<path d="M73 13.5C73 14.8807 71.8807 16 70.5 16C69.1193 16 68 14.8807 68 13.5C68 12.1193 69.1193 11 70.5 11C71.8807 11 73 12.1193 73 13.5Z" fill="#9CE3EE"/>
</svg>
